<?xml version="1.0" encoding="UTF-8"?>
<svg width="96px" height="105px" viewBox="0 0 96 105" version="1.1" xmlns="http://www.w3.org/2000/svg" xmlns:xlink="http://www.w3.org/1999/xlink">
    <!-- Generator: Sketch 53.2 (72643) - https://sketchapp.com -->
    <title>Group 2</title>
    <desc>Created with Sketch.</desc>
    <defs>
        <linearGradient x1="50%" y1="0%" x2="50%" y2="100%" id="linearGradient-1">
            <stop stop-color="#FBC75D" offset="0%"></stop>
            <stop stop-color="#F8C048" offset="100%"></stop>
        </linearGradient>
        <path d="M37.1851696,57.5041128 L29.948004,61.3089159 C28.0415101,62.3112191 25.6834642,61.5782277 24.6811611,59.6717338 C24.2820387,58.9125579 24.1443115,58.0429824 24.2893012,57.1976276 L25.6714768,49.1389253 C25.8884647,47.8737885 25.4690257,46.5828877 24.5498499,45.6869128 L18.69486,39.9797081 C17.152474,38.4762534 17.120914,36.0071116 18.6243687,34.4647257 C19.2230523,33.8505395 20.0075077,33.4508395 20.8562921,33.3275039 L28.9476892,32.1517551 C30.2179589,31.9671741 31.3160647,31.1693536 31.8841465,30.018294 L35.5027293,22.6862444 C36.4559762,20.7547552 38.794517,19.9617331 40.7260063,20.91498 C41.4951354,21.2945679 42.1176828,21.9171153 42.4972707,22.6862444 L46.1158535,30.018294 C46.6839353,31.1693536 47.7820411,31.9671741 49.0523108,32.1517551 L57.1437079,33.3275039 C59.2752328,33.6372326 60.7520905,35.6162597 60.4423618,37.7477847 C60.3190262,38.5965691 59.9193262,39.3810245 59.30514,39.9797081 L53.4501501,45.6869128 C52.5309743,46.5828877 52.1115353,47.8737885 52.3285232,49.1389253 L53.7106988,57.1976276 C54.0748068,59.3205398 52.6490143,61.3366679 50.5261021,61.7007758 C49.6807474,61.8457655 48.8111719,61.7080383 48.051996,61.3089159 L40.8148304,57.5041128 C39.6786667,56.9067962 38.3213333,56.9067962 37.1851696,57.5041128 Z" id="path-2"></path>
        <filter x="-9.3%" y="-9.7%" width="118.6%" height="138.8%" filterUnits="objectBoundingBox" id="filter-3">
            <feOffset dx="0" dy="8" in="SourceAlpha" result="shadowOffsetOuter1"></feOffset>
            <feColorMatrix values="0 0 0 0 0   0 0 0 0 0   0 0 0 0 0  0 0 0 0.06 0" type="matrix" in="shadowOffsetOuter1"></feColorMatrix>
        </filter>
    </defs>
    <g id="Settings" stroke="none" stroke-width="1" fill="none" fill-rule="evenodd">
        <g id="Modal---Profile---Elite-Pro---Upgrading" transform="translate(-174.000000, 0.000000)">
            <g id="4-copy" transform="translate(25.000000, 0.000000)">
                <g id="Group">
                    <g id="Group-2" transform="translate(149.000000, 0.900000)">
                        <path d="M54.9282032,1.811739 L89.0717968,21.050237 C93.3589838,23.465889 96,27.930198 96,32.761502 L96,71.238498 C96,76.069802 93.3589838,80.534111 89.0717968,82.949763 L54.9282032,102.188261 C50.6410162,104.603913 45.3589838,104.603913 41.0717968,102.188261 L6.92820323,82.949763 C2.64101615,80.534111 2.76906627e-14,76.069802 2.0511602e-14,71.238498 L0,32.761502 C-3.0767403e-15,27.930198 2.64101615,23.465889 6.92820323,21.050237 L41.0717968,1.811739 C45.3589838,-0.603913 50.6410162,-0.603913 54.9282032,1.811739 Z" id="Polygon" fill="#FFFFFF" fill-rule="nonzero"></path>
                        <g id="Icon/Elite-Pro" transform="translate(9.000000, 9.100000)">
                            <g id="Star">
                                <path d="M44.6291651,1.49468468 L72.3708349,17.3664455 C75.8541744,19.3593584 78,23.0424133 78,27.0282391 L78,58.7717609 C78,62.7575867 75.8541744,66.4406416 72.3708349,68.4335545 L44.6291651,84.3053153 C41.1458256,86.2982282 36.8541744,86.2982282 33.3708349,84.3053153 L5.62916512,68.4335545 C2.14582562,66.4406416 2.24986634e-14,62.7575867 1.66656766e-14,58.7717609 L0,27.0282391 C-2.49985149e-15,23.0424133 2.14582562,19.3593584 5.62916512,17.3664455 L33.3708349,1.49468468 C36.8541744,-0.498228225 41.1458256,-0.498228225 44.6291651,1.49468468 Z" id="Polygon" fill="url(#linearGradient-1)" fill-rule="nonzero"></path>
                                <g fill-rule="nonzero">
                                    <use fill="black" fill-opacity="1" filter="url(#filter-3)" xlink:href="#path-2"></use>
                                    <use fill="#FFFFFF" xlink:href="#path-2"></use>
                                </g>
                            </g>
                        </g>
                        <g id="Star" transform="translate(9.000000, 9.100000)"></g>
                    </g>
                </g>
            </g>
        </g>
    </g>
</svg>