<?xml version="1.0" encoding="UTF-8"?>
<svg width="20px" height="22px" viewBox="0 0 20 22" version="1.1" xmlns="http://www.w3.org/2000/svg" xmlns:xlink="http://www.w3.org/1999/xlink">
    <!-- Generator: Sketch 53.2 (72643) - https://sketchapp.com -->
    <title>Icon/Elite Pro</title>
    <desc>Created with Sketch.</desc>
    <defs>
        <linearGradient x1="50%" y1="0%" x2="50%" y2="100%" id="linearGradient-1">
            <stop stop-color="#FBC75D" offset="0%"></stop>
            <stop stop-color="#F8C048" offset="100%"></stop>
        </linearGradient>
        <path d="M9.53465887,14.7446443 L7.67897539,15.7202349 C7.1901308,15.9772357 6.58550365,15.7892891 6.32850284,15.3004446 C6.22616377,15.1057841 6.19084909,14.882816 6.22802594,14.6660584 L6.58242995,12.5997244 C6.63806788,12.2753304 6.5305194,11.9443302 6.29483331,11.714593 L4.79355384,10.2512072 C4.39807026,9.86570599 4.38997795,9.23259273 4.77547916,8.83710915 C4.92898777,8.67962551 5.13013018,8.57713834 5.34776721,8.54551383 L7.42248442,8.24403977 C7.74819458,8.19671131 8.02976017,7.99214194 8.17542218,7.69699846 L9.10326392,5.81698575 C9.34768622,5.32173209 9.94731205,5.11839309 10.4425657,5.36281539 C10.6397783,5.46014562 10.7994058,5.61977315 10.8967361,5.81698575 L11.8245778,7.69699846 C11.9702398,7.99214194 12.2518054,8.19671131 12.5775156,8.24403977 L14.6522328,8.54551383 C15.1987777,8.62493144 15.5774591,9.13237429 15.4980415,9.67891916 C15.466417,9.89655619 15.3639298,10.0976986 15.2064462,10.2512072 L13.7051667,11.714593 C13.4694806,11.9443302 13.3619321,12.2753304 13.4175701,12.5997244 L13.7719741,14.6660584 C13.8653351,15.2103948 13.4997472,15.7273507 12.9554108,15.8207118 C12.7386532,15.8578886 12.5156851,15.8225739 12.3210246,15.7202349 L10.4653411,14.7446443 C10.1740171,14.5914862 9.8259829,14.5914862 9.53465887,14.7446443 Z" id="path-2"></path>
        <filter x="-9.1%" y="-9.5%" width="118.2%" height="137.8%" filterUnits="objectBoundingBox" id="filter-3">
            <feOffset dx="0" dy="2" in="SourceAlpha" result="shadowOffsetOuter1"></feOffset>
            <feColorMatrix values="0 0 0 0 0   0 0 0 0 0   0 0 0 0 0  0 0 0 0.06 0" type="matrix" in="shadowOffsetOuter1"></feColorMatrix>
        </filter>
    </defs>
    <g id="Icon/Elite-Pro" stroke="none" stroke-width="1" fill="none" fill-rule="evenodd">
        <g id="Star" fill-rule="nonzero">
            <path d="M11.4433757,0.383252481 L18.5566243,4.45293475 C19.4497883,4.96393806 20,5.90831112 20,6.93031773 L20,15.0696823 C20,16.0916889 19.4497883,17.0360619 18.5566243,17.5470652 L11.4433757,21.6167475 C10.5502117,22.1277508 9.4497883,22.1277508 8.55662433,21.6167475 L1.44337567,17.5470652 C0.550211698,17.0360619 5.76888806e-15,16.0916889 4.27325041e-15,15.0696823 L0,6.93031773 C-6.40987562e-16,5.90831112 0.550211698,4.96393806 1.44337567,4.45293475 L8.55662433,0.383252481 C9.4497883,-0.127750827 10.5502117,-0.127750827 11.4433757,0.383252481 Z" id="Polygon" fill="url(#linearGradient-1)"></path>
            <g>
                <use fill="black" fill-opacity="1" filter="url(#filter-3)" xlink:href="#path-2"></use>
                <use fill="#FFFFFF" xlink:href="#path-2"></use>
            </g>
        </g>
    </g>
</svg>